<!-- icon.svg — Kubernetes Cluster Growth Modeler (retro) -->
<svg xmlns="http://www.w3.org/2000/svg" viewBox="0 0 64 64">
  <defs>
    <!-- Neon gradients matching your app palette -->
    <linearGradient id="g-accent" x1="0" y1="0" x2="1" y2="1">
      <stop offset="0%" stop-color="#00E5FF"></stop>
      <stop offset="100%" stop-color="#9C27FF"></stop>
    </linearGradient>
    <linearGradient id="g-bars" x1="0" y1="1" x2="0" y2="0">
      <stop offset="0%" stop-color="#FFB000"></stop>
      <stop offset="100%" stop-color="#FF3E3E"></stop>
    </linearGradient>
    <filter id="glow" x="-50%" y="-50%" width="200%" height="200%">
      <feGaussianBlur stdDeviation="1.6" result="b"></feGaussianBlur>
      <feMerge>
        <feMergeNode in="b"></feMergeNode>
        <feMergeNode in="SourceGraphic"></feMergeNode>
      </feMerge>
    </filter>
  </defs>

  <!-- Optional dark tile background (keeps favicon legible). Remove if you want transparency. -->
  <rect x="2" y="2" width="60" height="60" rx="12" fill="#0b0b12"></rect>

  <!-- Cluster hex frame (not Kubernetes’ heptagon; original hex to avoid trademark lookalike) -->
  <polygon points="56,32 44,52.8 20,52.8 8,32 20,11.2 44,11.2" fill="none" stroke="url(#g-accent)" stroke-width="2.4" filter="url(#glow)"></polygon>

  <!-- “Nodes”: tiny pixels along the hex to sell the grid/cluster vibe -->
  <g fill="#33FF57">
    <rect x="30.5" y="7.5" width="3" height="3" rx="0.6"></rect>
    <rect x="53.5" y="30.5" width="3" height="3" rx="0.6"></rect>
    <rect x="30.5" y="53.5" width="3" height="3" rx="0.6"></rect>
    <rect x="7.5" y="30.5" width="3" height="3" rx="0.6"></rect>
  </g>

  <!-- Inner “stacked usage” bars: CPU & Memory suggestion -->
  <!-- Left bar (CPU) -->
  <g filter="url(#glow)">
    <rect x="24" y="22" width="6" height="22" rx="1.5" fill="#1a1a2a" stroke="#2a2a40" stroke-width="1"></rect>
    <rect x="24" y="30" width="6" height="14" rx="1.5" fill="url(#g-bars)"></rect>
  </g>
  <!-- Right bar (Memory) -->
  <g filter="url(#glow)">
    <rect x="34" y="18" width="6" height="26" rx="1.5" fill="#1a1a2a" stroke="#2a2a40" stroke-width="1"></rect>
    <rect x="34" y="26" width="6" height="18" rx="1.5" fill="url(#g-bars)"></rect>
  </g>

  <!-- Center grid “bus” line -->
  <path d="M18 38 H46" stroke="#A7A7C7" stroke-width="1.2" stroke-linecap="round" opacity="0.6"></path>

  <!-- Tiny “spark” ticks for retro feel -->
  <g stroke="#FF3E3E" stroke-linecap="round" filter="url(#glow)">
    <line x1="22" y1="14" x2="24" y2="14"></line>
    <line x1="40" y1="50" x2="42" y2="50"></line>
  </g>
</svg>
